<svg xmlns:dc="http://purl.org/dc/elements/1.1/" xmlns:cc="http://creativecommons.org/ns#" xmlns:rdf="http://www.w3.org/1999/02/22-rdf-syntax-ns#" xmlns:svg="http://www.w3.org/2000/svg" xmlns="http://www.w3.org/2000/svg" xmlns:sodipodi="http://sodipodi.sourceforge.net/DTD/sodipodi-0.dtd" xmlns:inkscape="http://www.inkscape.org/namespaces/inkscape" viewBox="0 0 8.4666665 10.583333625" version="1.1" x="0px" y="0px"><g transform="translate(0,-288.53332)"><path style="" d="m 2.38125,289.72395 a 0.13229168,0.13229168 0 1 0 -0.264583,0 0.13229168,0.13229168 0 1 0 0.264583,0 z" fill="#000000" stroke="none"/><path style="" d="m 6.35,289.72395 a 0.1322918,0.1322918 0 1 0 -0.2645831,0 0.1322918,0.1322918 0 1 0 0.2645831,0 z" fill="#000000" stroke="none"/><path style="" d="m 6.35,295.80936 a 0.1322918,0.1322918 0 1 0 -0.2645831,0 0.1322918,0.1322918 0 1 0 0.2645831,0 z" fill="#000000" stroke="none"/><path style="" d="m 2.38125,295.80936 a 0.13229168,0.13229168 0 1 0 -0.264583,0 0.13229168,0.13229168 0 1 0 0.264583,0 z" fill="#000000" stroke="none"/><path style="" d="m 3.1751124,289.59179 v 0.26459 h 0.396875 v 0.52916 H 3.4396957 v 0.26459 H 2.6459458 v 0.26458 h 0.7937499 v 0.26458 H 2.6459458 v 0.52917 H 2.3813625 v 0.26458 h 0.5291666 v -0.52916 h 0.5291666 v 0.26458 h 0.1322917 v 0.52917 h -0.396875 v 0.26458 h 0.6614583 v -0.79375 h 0.1322917 v 0.79375 h 0.2645833 v -0.79375 h 0.1322917 v 0.79375 h 0.6614583 v -0.26458 h -0.396875 v -0.52917 h 0.1322917 v -0.26458 h 0.79375 v -0.26459 h -0.79375 v -0.26458 h 0.79375 v -0.26458 h -0.79375 v -0.26459 H 4.6303207 v -0.52916 h 0.396875 v -0.26459 H 4.3657374 v 0.79375 H 4.2334457 v -0.79375 H 3.9688624 v 0.79375 H 3.8365707 v -0.79375 z m 0.5291667,1.05834 h 0.79375 v 0.79375 h -0.79375 z" fill="#000000" stroke="none"/><path style="" d="m 2.1167792,289.06263 a 0.52916664,0.52916664 0 0 0 -0.5291667,0.52916 v 6.35 a 0.52916664,0.52916664 0 0 0 0.5291667,0.52917 h 4.2333332 a 0.52916664,0.52916664 0 0 0 0.5291667,-0.52917 v -6.35 a 0.52916664,0.52916664 0 0 0 -0.5291667,-0.52916 z m 0,0.26458 h 4.2333332 a 0.26458336,0.26458336 0 0 1 0.2645833,0.26458 v 6.35 a 0.26458336,0.26458336 0 0 1 -0.2645833,0.26459 H 2.1167792 a 0.26458336,0.26458336 0 0 1 -0.2645834,-0.26459 v -6.35 a 0.26458336,0.26458336 0 0 1 0.2645834,-0.26458 z" fill="#000000" stroke="none"/><path style="" d="m 2.3813625,293.03138 v 0.79375 h 2.6458332 v -0.79375 z m 0.2645833,0.26458 h 2.1166666 v 0.26458 H 2.6459458 Z" fill="#000000" stroke="none"/><path style="" d="m 2.3813625,294.61888 v 0.79375 h 3.1749999 v -0.79375 z m 0.2645833,0.26458 h 2.6458333 v 0.26458 H 2.6459458 Z" fill="#000000" stroke="none"/><path style="" d="M 6.0854169,292.76666 H 6.35 v -0.26459 H 6.0854169 Z" fill="#000000" stroke="none"/><path style="" d="M 6.0854169,293.29582 H 6.35 v -0.26458 H 6.0854169 Z" fill="#000000" stroke="none"/><path style="" d="M 6.0854169,293.82499 H 6.35 V 293.5604 H 6.0854169 Z" fill="#000000" stroke="none"/><path style="" d="m 5.55625,292.76666 h 0.264583 v -0.26459 H 5.55625 Z" fill="#000000" stroke="none"/><path style="" d="m 5.55625,293.29582 h 0.264583 v -0.26458 H 5.55625 Z" fill="#000000" stroke="none"/><path style="" d="M 5.55625,293.82499 H 5.820833 V 293.5604 H 5.55625 Z" fill="#000000" stroke="none"/></g><text x="0" y="23.4666669" fill="#000000" font-size="5px" font-weight="bold" font-family="'Helvetica Neue', Helvetica, Arial-Unicode, Arial, Sans-serif">Created by Pham Duy Phuong Hung</text><text x="0" y="28.4666669" fill="#000000" font-size="5px" font-weight="bold" font-family="'Helvetica Neue', Helvetica, Arial-Unicode, Arial, Sans-serif">from the Noun Project</text></svg>